<?xml version="1.0" encoding="utf-8"?>
<!-- Generator: Adobe Illustrator 21.0.0, SVG Export Plug-In . SVG Version: 6.00 Build 0)  -->
<!DOCTYPE svg PUBLIC "-//W3C//DTD SVG 1.1//EN" "http://www.w3.org/Graphics/SVG/1.1/DTD/svg11.dtd">
<svg version="1.1" id="Layer_1" xmlns="http://www.w3.org/2000/svg" xmlns:xlink="http://www.w3.org/1999/xlink" x="0px" y="0px"
	 viewBox="0 0 353.2 62" style="enable-background:new 0 0 353.2 62;" xml:space="preserve">
<style type="text/css">
	.st0{fill:#FFFFFF;}
	.st1{fill:#324CD0;}
	.st2{fill:#8E7841;}
</style>
<path class="st0" d="M22.7,37.9H18V12.6l-3.8,7.5H10l-3.8-7.5v25.3H1.5V0.3h3.8L7.7,5l4.4,8.8L16.5,5l2.4-4.7h3.8V37.9z"/>
<path class="st0" d="M39.3,0.2c4.6,0,7,2.4,7,7v30.5h-4.7V25.5h-7.7v12.3h-4.7V7.3c0-4.6,2.5-7,7-7H39.3z M36.3,4.9
	c-1.5,0-2.3,0.8-2.3,2.4v13.5h7.7V7.3c0-1.5-0.8-2.4-2.3-2.4H36.3z"/>
<path class="st0" d="M68.2,5h-5.9v32.9h-4.7V5h-5.9V0.3h16.4V5z"/>
<path class="st0" d="M90.6,5l0,28.2v4.7h-4.7V19.6h-7.7v18.2h-4.7v-4.7h0l0-28.2V0.3h4.7v14.7h7.7V0.3h4.7V5z"/>
<path class="st0" d="M111.9,4.9h-10v10h5.9v4.7h-5.9v13.5h10v4.7H97.2V0.2h14.7V4.9z"/>
<path class="st0" d="M143,37.9h-4.7L133.2,14l-5.2,23.9h-4.7l-7.1-37.6h5.1l4.3,23.1l5.2-20.6l0-0.2h5l0,0.2l5.1,20.6L145,0.3h5
	L143,37.9z"/>
<path class="st1" d="M204.8,37.2c-2.4,1.1-5.8,1.8-9.2,1.8c-2.6,0-5-0.7-9.2-5.4c-2.3,3.2-5.5,5.2-9.7,5.2c-3.2,0-5.6-0.7-7.8-2.9
	c-1.7-1.6-2.7-4.3-2.7-7.4c0-2.9,1-4.8,2.9-6.5c1.5-1.3,3.4-2.5,5.1-3.4c-2.6-3.4-3.3-6.2-3.3-9.1c0-5.6,4-9.5,10.3-9.5
	c5.9,0,9.3,3.5,9.3,7.7c0,2.8-1.3,4.1-3.2,5.3c-1.3,0.8-2.6,1.6-5.2,2.9c2.6,3.4,6.2,7.6,8.4,9.9c1.7-4.3,2.1-4.6,2.9-6.4
	c1.9-4.2,3.6-7.1,6.7-7.1c1.9,0,2.8,1.1,2.8,2.9c0,1.1-0.6,2.1-1.3,2.6c-0.5,0.4-0.8,0.3-1.3,0.1c-0.4-0.2-0.9-0.4-1.5-0.4
	c-1.8,0-2.8,0.8-4.4,3.2c-0.9,1.4-2,3.2-3.2,5.9c7,7.6,10.7,10,13.7,9.8V37.2z M173.2,24.2c0,5.6,3.7,11,8.3,11
	c2.1,0,3.4-1.1,4.2-2.3c-2.7-3.1-7.3-8.1-11.2-13.5C173.7,20.5,173.2,22.3,173.2,24.2L173.2,24.2z M180.9,0.9
	c-1.7,0-3.4,1.5-3.4,5.4c0,3.3,1.7,6.1,4,9.1c2-1.7,3.4-4.9,3.4-7.9C184.9,3.4,183.6,0.9,180.9,0.9L180.9,0.9z"/>
<path class="st0" d="M231.9,0.3c4.6,0,7,2.3,7,6.4h-4.7c0-1.1-0.8-1.7-2.3-1.7h-3c-1.5,0-2.3,0.8-2.3,2.4v23.5
	c0,1.5,0.8,2.4,2.3,2.4h3c1.5,0,2.3-0.8,2.3-2.4V19.6h0v-4.7h4.7v15.9c0,4.6-2.4,7-7,7h-3c-4.6,0-7-2.4-7-7V7.3c0-4.6,2.4-7,7-7
	H231.9z"/>
<path class="st0" d="M260.2,4.9h-10v10h5.9v4.7h-5.9v13.5h10v4.7h-14.7V0.2h14.7V4.9z"/>
<path class="st0" d="M276.8,0.3c4.6,0,7,2.4,7,7v23.5c0,4.6-2.4,7-7,7h-3c-4.6,0-7-2.4-7-7V7.3c0-4.6,2.4-7,7-7H276.8z M273.8,5
	c-1.5,0-2.3,0.8-2.3,2.4v23.5c0,1.5,0.8,2.4,2.3,2.4h3c1.5,0,2.3-0.8,2.3-2.4V7.3c0-1.5-0.8-2.4-2.3-2.4H273.8z"/>
<path class="st0" d="M300.4,0.3c4.6,0,7,2.4,7,7v11.2c0,3.2-1.2,5.4-3.5,6.4l2.8,8.3l1.6,4.7h-5l-1.5-4.7l-2.5-7.6h-4.2v12.3h-4.7
	V0.3H300.4z M295.1,5v15.9h5.3c1.5,0,2.3-0.8,2.3-2.4V7.3c0-1.5-0.8-2.4-2.3-2.4H295.1z"/>
<path class="st0" d="M325,0.3c4.6,0,7,2.3,7,6.4h-4.7c0-1.1-0.8-1.7-2.3-1.7h-3c-1.5,0-2.3,0.8-2.3,2.4v23.5c0,1.5,0.8,2.4,2.3,2.4
	h3c1.5,0,2.3-0.8,2.3-2.4V19.6h0v-4.7h4.7v15.9c0,4.6-2.4,7-7,7h-3c-4.6,0-7-2.4-7-7V7.3c0-4.6,2.4-7,7-7H325z"/>
<path class="st0" d="M353.2,4.9h-10v10h5.9v4.7h-5.9v13.5h10v4.7h-14.7V0.2h14.7V4.9z"/>
<g>
	<path class="st2" d="M3.5,60l-0.8,1.9H0l4.5-10.5h2.7l4.4,10.5H8.8L8.1,60H3.5z M5.8,54l-1.5,3.9h3L5.8,54z"/>
	<path class="st2" d="M29.5,53.5v8.4h-2.7v-8.4h-3.1v-2.2h9v2.2H29.5z"/>
	<path class="st2" d="M51.7,53.5v8.4H49v-8.4h-3.1v-2.2h9v2.2H51.7z"/>
	<path class="st2" d="M79.2,56.6c0,3.1-2.4,5.4-5.7,5.4c-3.2,0-5.7-2.3-5.7-5.4c0-3.1,2.4-5.3,5.7-5.3
		C76.7,51.3,79.2,53.6,79.2,56.6z M70.5,56.6c0,1.8,1.4,3.1,3,3.1c1.6,0,2.9-1.4,2.9-3.1c0-1.8-1.3-3.1-2.9-3.1
		C71.9,53.5,70.5,54.9,70.5,56.6z"/>
	<path class="st2" d="M98.4,58.9L98.4,58.9h-2.1v3h-2.7V51.4h4.7c2.8,0,4.4,1.3,4.4,3.7c0,1.6-0.7,2.8-1.9,3.4l2.2,3.5h-3L98.4,58.9
		z M98.3,56.8c1.2,0,1.8-0.6,1.8-1.7c0-1.1-0.7-1.6-1.8-1.6h-2v3.3H98.3z"/>
	<path class="st2" d="M124.9,61.9l-4.8-6.5v6.5h-2.5V51.4h2.4l4.8,6.5v-6.5h2.5v10.5H124.9z"/>
	<path class="st2" d="M145,53.5v2.1h5v2.1h-5v2.1h5.7v2.1h-8.4V51.4h8.2v2.1H145z"/>
	<path class="st2" d="M170.9,61.9h-2.7v-3.3l-3.9-7.2h2.7l2.5,4.6l2.5-4.6h2.7l-3.8,7.1V61.9z"/>
	<path class="st2" d="M196.9,52.4l-1,2.1c-1.1-0.6-2.5-1.1-3.4-1.1c-0.7,0-1.2,0.3-1.2,0.8c0,1.8,5.5,0.8,5.5,4.6
		c0,2.1-1.9,3.2-4.2,3.2c-1.8,0-3.6-0.7-4.8-1.7l1-2.1c1.1,0.9,2.7,1.6,3.8,1.6c0.8,0,1.4-0.3,1.4-0.9c0-1.9-5.5-0.7-5.5-4.5
		c0-1.9,1.7-3.2,4.2-3.2C194.3,51.3,195.9,51.7,196.9,52.4z"/>
	<path class="st2" d="M230.4,60l-0.8,1.9h-2.7l4.5-10.5h2.7l4.4,10.5h-2.9L235,60H230.4z M232.7,54l-1.5,3.9h3L232.7,54z"/>
	<path class="st2" d="M256.3,53.5v8.4h-2.7v-8.4h-3.1v-2.2h9v2.2H256.3z"/>
	<path class="st2" d="M297.4,59.7v2.2h-7.1V51.4h2.7v8.3H297.4z"/>
	<path class="st2" d="M314.1,60l-0.8,1.9h-2.7l4.5-10.5h2.7l4.4,10.5h-2.9l-0.8-1.9H314.1z M316.4,54l-1.5,3.9h3L316.4,54z"/>
	<path class="st2" d="M344.6,61.9l-1.9-7.3l-2,7.3h-2.8l-3.4-10.5h2.8l2.1,7.7l2-7.7h2.6l2.1,7.7l2-7.7h2.7l-3.5,10.5H344.6z"/>
</g>
</svg>
